<?xml version="1.0" encoding="UTF-8" standalone="no"?>
<!DOCTYPE svg PUBLIC "-//W3C//DTD SVG 1.1//EN"
 "http://www.w3.org/Graphics/SVG/1.1/DTD/svg11.dtd">
<!-- Generated by graphviz version 2.43.0 (0)
 -->
<!-- Title: SOC_Sentinel Pages: 1 -->
<svg width="1062pt" height="479pt"
 viewBox="0.00 0.00 1062.00 479.00" xmlns="http://www.w3.org/2000/svg" xmlns:xlink="http://www.w3.org/1999/xlink">
<g id="graph0" class="graph" transform="scale(1 1) rotate(0) translate(4 475)">
<title>SOC_Sentinel</title>
<polygon fill="white" stroke="transparent" points="-4,4 -4,-475 1058,-475 1058,4 -4,4"/>
<text text-anchor="middle" x="527" y="-452.6" font-family="Helvetica,sans-Serif" font-weight="bold" font-size="18.00">SOC Sentinel — agentic SOC analyst you can trust</text>
<text text-anchor="middle" x="527" y="-432.6" font-family="Helvetica,sans-Serif" font-weight="bold" font-size="18.00">Claude investigates Splunk via the Splunk MCP Server; code (not the model) decides what is confirmed</text>
<g id="clust1" class="cluster">
<title>cluster_agent</title>
<path fill="#eaf1fb" stroke="#2b6cb0" d="M223.75,-92C223.75,-92 535.75,-92 535.75,-92 541.75,-92 547.75,-98 547.75,-104 547.75,-104 547.75,-403 547.75,-403 547.75,-409 541.75,-415 535.75,-415 535.75,-415 223.75,-415 223.75,-415 217.75,-415 211.75,-409 211.75,-403 211.75,-403 211.75,-104 211.75,-104 211.75,-98 217.75,-92 223.75,-92"/>
<text text-anchor="middle" x="379.75" y="-400.6" font-family="Helvetica,sans-Serif" font-weight="bold" font-size="13.00">SOC Sentinel &#160;— &#160;AI agent (Python)</text>
</g>
<!-- analyst -->
<g id="node1" class="node">
<title>analyst</title>
<path fill="#eef1f4" stroke="#999999" d="M586.25,-53C586.25,-53 379.25,-53 379.25,-53 373.25,-53 367.25,-47 367.25,-41 367.25,-41 367.25,-12 367.25,-12 367.25,-6 373.25,0 379.25,0 379.25,0 586.25,0 586.25,0 592.25,0 598.25,-6 598.25,-12 598.25,-12 598.25,-41 598.25,-41 598.25,-47 592.25,-53 586.25,-53"/>
<text text-anchor="middle" x="482.75" y="-36.4" font-family="Helvetica,sans-Serif" font-size="12.00">SOC Analyst</text>
<text text-anchor="middle" x="482.75" y="-23.4" font-family="Helvetica,sans-Serif" font-size="12.00">(asks in plain English:</text>
<text text-anchor="middle" x="482.75" y="-10.4" font-family="Helvetica,sans-Serif" font-size="12.00">&quot;Was my environment attacked?&quot;)</text>
</g>
<!-- orchestrator -->
<g id="node2" class="node">
<title>orchestrator</title>
<path fill="#2b6cb0" stroke="#1a4971" d="M527.25,-385C527.25,-385 276.25,-385 276.25,-385 270.25,-385 264.25,-379 264.25,-373 264.25,-373 264.25,-344 264.25,-344 264.25,-338 270.25,-332 276.25,-332 276.25,-332 527.25,-332 527.25,-332 533.25,-332 539.25,-338 539.25,-344 539.25,-344 539.25,-373 539.25,-373 539.25,-379 533.25,-385 527.25,-385"/>
<text text-anchor="middle" x="401.75" y="-368.4" font-family="Helvetica,sans-Serif" font-size="12.00" fill="white">Orchestrator &#160;(Claude / Anthropic)</text>
<text text-anchor="middle" x="401.75" y="-355.4" font-family="Helvetica,sans-Serif" font-size="12.00" fill="white">reasons, picks which SPL searches to run,</text>
<text text-anchor="middle" x="401.75" y="-342.4" font-family="Helvetica,sans-Serif" font-size="12.00" fill="white">drafts findings with explicit claims</text>
</g>
<!-- analyst&#45;&gt;orchestrator -->
<g id="edge1" class="edge">
<title>analyst&#45;&gt;orchestrator</title>
<path fill="none" stroke="#444444" d="M518.75,-53.04C524.19,-58.39 529.18,-64.43 532.75,-71 582.7,-162.79 600.44,-220.22 540.75,-306 535.3,-313.83 528.51,-320.48 520.88,-326.11"/>
<polygon fill="#444444" stroke="#444444" points="518.68,-323.38 512.31,-331.84 522.57,-329.2 518.68,-323.38"/>
<text text-anchor="middle" x="631.75" y="-174" font-family="Helvetica,sans-Serif" font-size="10.00"> &#160;natural&#45;language ask</text>
</g>
<!-- validator -->
<g id="node3" class="node">
<title>validator</title>
<path fill="#1a4971" stroke="#0e2c45" d="M503.75,-266C503.75,-266 249.75,-266 249.75,-266 243.75,-266 237.75,-260 237.75,-254 237.75,-254 237.75,-212 237.75,-212 237.75,-206 243.75,-200 249.75,-200 249.75,-200 503.75,-200 503.75,-200 509.75,-200 515.75,-206 515.75,-212 515.75,-212 515.75,-254 515.75,-254 515.75,-260 509.75,-266 503.75,-266"/>
<text text-anchor="middle" x="376.75" y="-249.4" font-family="Helvetica,sans-Serif" font-size="12.00" fill="white">3&#45;Layer Validator &#160;— &#160;THE GATE</text>
<text text-anchor="middle" x="376.75" y="-236.4" font-family="Helvetica,sans-Serif" font-size="12.00" fill="white">L1 trace: every claim &#45;&gt; a real Splunk row</text>
<text text-anchor="middle" x="376.75" y="-223.4" font-family="Helvetica,sans-Serif" font-size="12.00" fill="white">L2 corroborate: independent sourcetypes</text>
<text text-anchor="middle" x="376.75" y="-210.4" font-family="Helvetica,sans-Serif" font-size="12.00" fill="white">L3 calibrate: 3+=HIGH 2=MED 1=LOW</text>
</g>
<!-- orchestrator&#45;&gt;validator -->
<g id="edge6" class="edge">
<title>orchestrator&#45;&gt;validator</title>
<path fill="none" stroke="#444444" d="M267.8,-331.94C256.57,-325.16 246.56,-316.65 238.75,-306 228.89,-292.54 231.81,-281.38 241.93,-272.2"/>
<polygon fill="#444444" stroke="#444444" points="244.1,-274.95 250.01,-266.16 239.91,-269.35 244.1,-274.95"/>
<text text-anchor="middle" x="297.25" y="-292.5" font-family="Helvetica,sans-Serif" font-size="10.00"> &#160;draft findings + claims</text>
</g>
<!-- mcp -->
<g id="node5" class="node">
<title>mcp</title>
<path fill="#65a637" stroke="#3a6b1f" d="M838.25,-259.5C838.25,-259.5 625.25,-259.5 625.25,-259.5 619.25,-259.5 613.25,-253.5 613.25,-247.5 613.25,-247.5 613.25,-218.5 613.25,-218.5 613.25,-212.5 619.25,-206.5 625.25,-206.5 625.25,-206.5 838.25,-206.5 838.25,-206.5 844.25,-206.5 850.25,-212.5 850.25,-218.5 850.25,-218.5 850.25,-247.5 850.25,-247.5 850.25,-253.5 844.25,-259.5 838.25,-259.5"/>
<text text-anchor="middle" x="731.75" y="-242.9" font-family="Helvetica,sans-Serif" font-size="12.00" fill="white">Splunk MCP Server</text>
<text text-anchor="middle" x="731.75" y="-229.9" font-family="Helvetica,sans-Serif" font-size="12.00" fill="white">(Splunk AI capability — typed tools,</text>
<text text-anchor="middle" x="731.75" y="-216.9" font-family="Helvetica,sans-Serif" font-size="12.00" fill="white">no shell: splunk_run_query, ...)</text>
</g>
<!-- orchestrator&#45;&gt;mcp -->
<g id="edge2" class="edge">
<title>orchestrator&#45;&gt;mcp</title>
<path fill="none" stroke="#444444" d="M508.05,-331.98C527.94,-325.05 548.02,-316.48 565.75,-306 577.93,-298.8 576.69,-291.39 588.75,-284 601.63,-276.11 615.92,-269.24 630.35,-263.34"/>
<polygon fill="#444444" stroke="#444444" points="631.82,-266.52 639.84,-259.6 629.25,-260.01 631.82,-266.52"/>
<text text-anchor="middle" x="656.75" y="-298" font-family="Helvetica,sans-Serif" font-size="10.00"> &#160;MCP tool calls</text>
<text text-anchor="middle" x="656.75" y="-287" font-family="Helvetica,sans-Serif" font-size="10.00"> &#160;(run_query, get_indexes...)</text>
</g>
<!-- validator&#45;&gt;orchestrator -->
<g id="edge7" class="edge">
<title>validator&#45;&gt;orchestrator</title>
<path fill="none" stroke="#c0392b" stroke-dasharray="5,2" d="M374.97,-266.24C374.97,-278.78 375.83,-293.2 378.75,-306 380,-311.49 381.85,-317.11 383.96,-322.53"/>
<polygon fill="#c0392b" stroke="#c0392b" points="380.85,-324.16 387.99,-331.99 387.29,-321.42 380.85,-324.16"/>
<text text-anchor="middle" x="459.75" y="-292.5" font-family="Helvetica,sans-Serif" font-size="10.00" fill="#c0392b"> &#160;unsupported claim &#45;&gt; BLOCKED</text>
</g>
<!-- report -->
<g id="node4" class="node">
<title>report</title>
<path fill="#3a7bd5" stroke="#1a4971" d="M514.75,-153C514.75,-153 238.75,-153 238.75,-153 232.75,-153 226.75,-147 226.75,-141 226.75,-141 226.75,-112 226.75,-112 226.75,-106 232.75,-100 238.75,-100 238.75,-100 514.75,-100 514.75,-100 520.75,-100 526.75,-106 526.75,-112 526.75,-112 526.75,-141 526.75,-141 526.75,-147 520.75,-153 514.75,-153"/>
<text text-anchor="middle" x="376.75" y="-136.4" font-family="Helvetica,sans-Serif" font-size="12.00" fill="white">Report</text>
<text text-anchor="middle" x="376.75" y="-123.4" font-family="Helvetica,sans-Serif" font-size="12.00" fill="white">confirmed / needs&#45;review,</text>
<text text-anchor="middle" x="376.75" y="-110.4" font-family="Helvetica,sans-Serif" font-size="12.00" fill="white">every claim linked to the search that proves it</text>
</g>
<!-- validator&#45;&gt;report -->
<g id="edge8" class="edge">
<title>validator&#45;&gt;report</title>
<path fill="none" stroke="#1f8b3a" stroke-width="2" d="M376.75,-199.79C376.75,-188.2 376.75,-175.05 376.75,-163.18"/>
<polygon fill="#1f8b3a" stroke="#1f8b3a" stroke-width="2" points="380.25,-163.14 376.75,-153.14 373.25,-163.14 380.25,-163.14"/>
<text text-anchor="middle" x="431.25" y="-174" font-family="Helvetica,sans-Serif" font-size="10.00" fill="#1f8b3a"> &#160;every claim traces ✓</text>
</g>
<!-- report&#45;&gt;analyst -->
<g id="edge9" class="edge">
<title>report&#45;&gt;analyst</title>
<path fill="none" stroke="#444444" d="M404.6,-99.75C417.75,-87.6 433.58,-72.96 447.55,-60.05"/>
<polygon fill="#444444" stroke="#444444" points="450.12,-62.43 455.09,-53.08 445.37,-57.3 450.12,-62.43"/>
<text text-anchor="middle" x="481.25" y="-74" font-family="Helvetica,sans-Serif" font-size="10.00"> &#160;trustworthy report</text>
</g>
<!-- mcp&#45;&gt;orchestrator -->
<g id="edge5" class="edge">
<title>mcp&#45;&gt;orchestrator</title>
<path fill="none" stroke="#444444" d="M736.61,-259.69C737.96,-275.19 736.53,-294.16 724.75,-306 697.02,-333.87 587.54,-317.62 548.75,-324 538.27,-325.72 527.42,-327.74 516.58,-329.92"/>
<polygon fill="#444444" stroke="#444444" points="515.73,-326.52 506.63,-331.96 517.13,-333.38 515.73,-326.52"/>
<text text-anchor="middle" x="777.25" y="-292.5" font-family="Helvetica,sans-Serif" font-size="10.00"> &#160;evidence (rows)</text>
</g>
<!-- splunk -->
<g id="node6" class="node">
<title>splunk</title>
<path fill="#65a637" stroke="#3a6b1f" d="M837.25,-146.5C837.25,-146.5 678.25,-146.5 678.25,-146.5 672.25,-146.5 666.25,-140.5 666.25,-134.5 666.25,-134.5 666.25,-118.5 666.25,-118.5 666.25,-112.5 672.25,-106.5 678.25,-106.5 678.25,-106.5 837.25,-106.5 837.25,-106.5 843.25,-106.5 849.25,-112.5 849.25,-118.5 849.25,-118.5 849.25,-134.5 849.25,-134.5 849.25,-140.5 843.25,-146.5 837.25,-146.5"/>
<text text-anchor="middle" x="757.75" y="-129.9" font-family="Helvetica,sans-Serif" font-size="12.00" fill="white">Splunk Enterprise</text>
<text text-anchor="middle" x="757.75" y="-116.9" font-family="Helvetica,sans-Serif" font-size="12.00" fill="white">indexes &#45; SPL &#45; result rows</text>
</g>
<!-- mcp&#45;&gt;splunk -->
<g id="edge3" class="edge">
<title>mcp&#45;&gt;splunk</title>
<path fill="none" stroke="#444444" d="M719.15,-206.27C715.42,-195.2 713.37,-182.24 717.75,-171 720.05,-165.1 723.56,-159.52 727.57,-154.45"/>
<polygon fill="#444444" stroke="#444444" points="730.21,-156.74 734.18,-146.92 724.95,-152.13 730.21,-156.74"/>
<text text-anchor="middle" x="747.25" y="-174" font-family="Helvetica,sans-Serif" font-size="10.00"> &#160;SPL search</text>
</g>
<!-- splunk&#45;&gt;mcp -->
<g id="edge4" class="edge">
<title>splunk&#45;&gt;mcp</title>
<path fill="none" stroke="#444444" d="M771.11,-146.52C776.81,-157.04 781.24,-170.31 776.75,-182 774.5,-187.87 771.21,-193.48 767.41,-198.68"/>
<polygon fill="#444444" stroke="#444444" points="764.66,-196.51 761.1,-206.49 770.1,-200.91 764.66,-196.51"/>
<text text-anchor="middle" x="808.25" y="-174" font-family="Helvetica,sans-Serif" font-size="10.00"> &#160;result rows</text>
</g>
<!-- legend -->
<g id="node7" class="node">
<title>legend</title>
<polygon fill="#fffbe6" stroke="#caa300" points="799.75,-393 557.75,-393 557.75,-324 805.75,-324 805.75,-387 799.75,-393"/>
<polyline fill="none" stroke="#caa300" points="799.75,-393 799.75,-387 "/>
<polyline fill="none" stroke="#caa300" points="805.75,-387 799.75,-387 "/>
<text text-anchor="middle" x="681.75" y="-378" font-family="Helvetica,sans-Serif" font-size="10.00">Blue = AI (Claude) &#160;&#160;&#160;&#160;&#160;&#160;&#160;Green = Splunk</text>
<text text-anchor="middle" x="681.75" y="-367" font-family="Helvetica,sans-Serif" font-size="10.00">Trust boundary: the Validator. A claim the</text>
<text text-anchor="middle" x="681.75" y="-356" font-family="Helvetica,sans-Serif" font-size="10.00">model asserts but the data can&#39;t support</text>
<text text-anchor="middle" x="681.75" y="-345" font-family="Helvetica,sans-Serif" font-size="10.00">never reaches the analyst. Read&#45;only (search</text>
<text text-anchor="middle" x="681.75" y="-334" font-family="Helvetica,sans-Serif" font-size="10.00">only; no destructive ops).</text>
</g>
</g>
</svg>
